HIERARCHY
ROOT RootJoint
{
    OFFSET   0.000000   0.000000   0.000000
    CHANNELS 6 Xposition Yposition Zposition Xrotation Yrotation Zrotation
    JOINT pelvis_lowerback
    {
        OFFSET   0.000000   0.093605   0.000000
        CHANNELS 3 Xrotation Yrotation Zrotation
        JOINT lowerback_torso
        {
            OFFSET   0.000000   0.100000   0.000000
            CHANNELS 3 Xrotation Yrotation Zrotation
            JOINT torso_head
            {
                OFFSET   0.000000   0.282350   0.000000
                CHANNELS 3 Xrotation Yrotation Zrotation
                End Site
                {
                    OFFSET   0.000000   0.192650   0.000000
                }
            }
            JOINT rTorso_Clavicle
            {
                OFFSET  -0.001000   0.157500   0.000000
                CHANNELS 3 Xrotation Yrotation Zrotation
                JOINT rShoulder
                {
                    OFFSET  -0.117647   0.000000   0.000000
                    CHANNELS 3 Xrotation Yrotation Zrotation
                    JOINT rElbow
                    {
                        OFFSET  -0.245000   0.000000   0.000000
                        CHANNELS 3 Xrotation Yrotation Zrotation
                        JOINT rWrist
                        {
                            OFFSET  -0.240000   0.000000   0.000000
                            CHANNELS 3 Xrotation Yrotation Zrotation
                            End Site
                            {
                                OFFSET  -0.116353  -0.002500   0.000000
                            }
                        }
                    }
                }
            }
            JOINT lTorso_Clavicle
            {
                OFFSET   0.001000   0.157500   0.000000
                CHANNELS 3 Xrotation Yrotation Zrotation
                JOINT lShoulder
                {
                    OFFSET   0.117647   0.000000   0.000000
                    CHANNELS 3 Xrotation Yrotation Zrotation
                    JOINT lElbow
                    {
                        OFFSET   0.245000   0.000000   0.000000
                        CHANNELS 3 Xrotation Yrotation Zrotation
                        JOINT lWrist
                        {
                            OFFSET   0.240000   0.000000   0.000000
                            CHANNELS 3 Xrotation Yrotation Zrotation
                            End Site
                            {
                                OFFSET   0.116353  -0.002500   0.000000
                            }
                        }
                    }
                }
            }
        }
    }
    JOINT rHip
    {
        OFFSET  -0.100000  -0.051395   0.000000
        CHANNELS 3 Xrotation Yrotation Zrotation
        JOINT rKnee
        {
            OFFSET   0.000000  -0.410000   0.000000
            CHANNELS 3 Xrotation Yrotation Zrotation
            JOINT rAnkle
            {
                OFFSET   0.000000  -0.390000   0.000000
                CHANNELS 3 Xrotation Yrotation Zrotation
                JOINT rToeJoint
                {
                    OFFSET   0.000000  -0.050000   0.130000
                    CHANNELS 3 Xrotation Yrotation Zrotation
                    End Site
                    {
                        OFFSET  -0.010000   0.002000   0.060000
                    }
                }
            }
        }
    }
    JOINT lHip
    {
        OFFSET   0.100000  -0.051395   0.000000
        CHANNELS 3 Xrotation Yrotation Zrotation
        JOINT lKnee
        {
            OFFSET   0.000000  -0.410000   0.000000
            CHANNELS 3 Xrotation Yrotation Zrotation
            JOINT lAnkle
            {
                OFFSET   0.000000  -0.390000   0.000000
                CHANNELS 3 Xrotation Yrotation Zrotation
                JOINT lToeJoint
                {
                    OFFSET   0.000000  -0.050000   0.130000
                    CHANNELS 3 Xrotation Yrotation Zrotation
                    End Site
                    {
                        OFFSET   0.010000   0.002000   0.060000
                    }
                }
            }
        }
    }
}
MOTION
Frames: 15
Frame Time:   0.008333
 -2.376719   0.925631   3.975860   0.000000   0.000000   0.000000   0.000000   0.000000   0.000000   0.000000   0.000000   0.000000   0.000000   0.000000   0.000000   0.000000   0.000000   0.000000   0.000000   0.000000   0.000000   0.000000   0.000000   0.000000   0.000000   0.000000   0.000000   0.000000   0.000000   0.000000   0.000000   0.000000   0.000000   0.000000   0.000000   0.000000   0.000000   0.000000   0.000000   0.000000   0.000000   0.000000   0.000000   0.000000   0.000000   0.000000   0.000000   0.000000   0.000000   0.000000   0.000000   0.000000   0.000000   0.000000   0.000000   0.000000   0.000000   0.000000   0.000000   0.000000   0.000000   0.000000   0.000000
 -2.376705   0.924535   3.974728  -0.488008  -0.975999  -0.002340   0.841974   0.741949   0.092255  -0.162316  -0.377698  -0.244153  -0.020870  -0.421323   0.400700  -0.264474   0.017535  -0.290484  -0.705312   0.825197   0.534008   0.002032   3.399853   0.022820  -0.242238  -2.092338  -0.035308  -0.333426   0.602817   0.530486  -1.329333   0.589947  -0.310708  -0.001136  -1.491819  -0.019187  -0.369574   0.119092   0.365341  -0.246386   0.462323  -0.085868   2.859111   0.001902  -0.012881  -3.804486  -0.423411   0.042105   0.040292   0.000020  -0.000328  -0.930907   0.311528   0.105412   3.736460  -0.003815  -0.021509  -0.802084   0.148398  -0.015590  -0.629492   0.000408   0.002832
 -2.376628   0.924494   3.973434  -1.229397  -2.382000   0.005288   1.762148   1.664699   0.145353  -0.177125  -0.499999  -0.481458   0.006991  -0.854774   0.780320  -0.510647   0.367649  -0.461843  -1.378180   1.913845   1.100358   0.006027   6.998777   0.041238  -0.504452  -2.973155  -0.017625  -0.663092   1.197579   0.987919  -2.578350   1.156325  -0.601053  -0.002228  -2.914829  -0.033015  -0.771915  -0.118389   0.789704  -0.294357   0.854094  -0.193851   5.852527   0.001338  -0.037040  -7.414368  -0.863671   0.111964  -0.007399  -0.000007   0.000341  -1.979144   0.625804   0.212014   7.515644  -0.010715  -0.052346  -2.248154   0.310075  -0.139368  -1.808955   0.000176   0.011749
 -2.376380   0.924252   3.972505  -2.058790  -4.041131   0.057671   2.589717   2.715445   0.147627  -0.159600  -0.407843  -0.716605   0.046470  -1.264203   1.125986  -0.730697   0.918606  -0.643565  -2.015924   3.101439   1.646679   0.006478  10.673357   0.059189  -0.755521  -3.267918   0.097108  -0.975046   1.750276   1.465037  -3.740469   1.685026  -0.848861  -0.004830  -4.249456  -0.043661  -1.153683  -0.443418   1.148914  -0.025000   1.235879  -0.487487   9.104827   0.000310  -0.066460 -10.815048  -1.256170   0.114183  -0.107703  -0.000235   0.001725  -3.092273   0.865118   0.276415  11.613049  -0.022778  -0.090551  -3.310918   0.396759  -0.271292  -3.768123  -0.000198   0.031883
 -2.376142   0.923465   3.971955  -2.890233  -5.812956   0.039735   3.297693   3.839388   0.187755  -0.173954  -0.168233  -0.904109   0.075731  -1.647324   1.446615  -0.930117   1.584841  -0.841895  -2.622750   4.320376   2.155720   0.003053  14.392666   0.077397  -0.995928  -3.251303   0.230478  -1.271388   2.267800   1.956760  -4.823156   2.182107  -1.046417  -0.008555  -5.497231  -0.051851  -1.516580  -0.786960   1.497452   0.488506   1.585206  -0.839636  12.456891  -0.002482  -0.095676 -13.984327  -1.625977   0.095794  -0.188398  -0.000462   0.002631  -4.277581   1.075673   0.475772  15.791977  -0.041530  -0.124656  -4.107998   0.483161  -0.322507  -6.104960   0.002083   0.054946
 -2.375898   0.922003   3.971724  -3.697958  -7.636596  -0.047050   3.899920   5.008948   0.266917  -0.229247   0.179514  -1.038966   0.090564  -2.004986   1.747355  -1.112262   2.317021  -1.047176  -3.201187   5.535504   2.631947  -0.003538  18.141509   0.095344  -1.226937  -3.049533   0.356518  -1.553459   2.760117   2.456934  -5.832867   2.654637  -1.197247  -0.012788  -6.660773  -0.057753  -1.862527  -1.122498   1.861201   1.191000   1.906480  -1.259151  15.856921  -0.006850  -0.122331 -16.939039  -1.972089   0.059212  -0.252601  -0.000656   0.003129  -5.536365   1.229320   0.736948  19.893276  -0.062098  -0.151913  -4.765493   0.510157  -0.366944  -7.881457   0.003021   0.068736
 -2.375693   0.919811   3.971766  -4.456351  -9.425838  -0.196501   4.396378   6.183699   0.380011  -0.326273   0.592339  -1.120669   0.093053  -2.339226   2.031166  -1.278242   3.075024  -1.246719  -3.752215   6.720954   3.084329  -0.012671  21.909669   0.112673  -1.449438  -2.735996   0.476483  -1.822030   3.230160   2.963450  -6.775312   3.103598  -1.304858  -0.017022  -7.745136  -0.061612  -2.192229  -1.443431   2.249706   2.076540   2.199070  -1.740517  19.126985  -0.011949  -0.141962 -19.692750  -2.294731   0.005443  -0.300227  -0.000776   0.003250  -6.856306   1.363712   1.048533  23.708365  -0.080254  -0.166769  -5.311188   0.532664  -0.397680  -8.851583   0.003212   0.068280
 -2.375603   0.916754   3.970873  -4.616821 -10.700415  -0.196841   4.573694   6.924638   0.317380  -0.609146   0.943566  -1.075919   0.093323  -2.552514   2.158771  -1.572339   3.684866  -1.755847  -4.186361   8.051203   3.710878  -0.026870  25.692082   0.123844  -1.745144  -2.398588   0.750254  -2.094767   3.692694   3.506432  -8.003976   3.626556  -1.401628  -0.022009  -8.909424  -0.068141  -2.612340  -1.644459   2.768401   2.824011   2.225362  -2.414706  20.829187  -0.011459  -0.133169 -21.316418  -2.689348  -0.018265  -0.467819  -0.001563   0.004947  -8.976798   1.434991   1.489046  26.940400  -0.093151  -0.155282  -7.081270   0.538870  -0.723016  -8.449520   0.002684   0.050927
 -2.375633   0.912838   3.969288  -4.689667 -11.847289  -0.145071   4.854773   7.624106   0.196131  -0.857409   1.279653  -1.072128   0.082193  -2.749598   2.274275  -1.852756   4.289182  -2.329569  -4.611217   9.317812   4.238235  -0.042416  29.483033   0.124475  -2.031802  -2.027799   0.936119  -2.358370   4.104543   4.060581  -9.157145   4.103438  -1.450958  -0.025870 -10.000342  -0.069339  -3.029385  -1.852629   3.352679   3.535622   2.254839  -3.196074  22.226117  -0.009646  -0.121295 -22.834827  -3.057116  -0.055170  -0.579974  -0.001951   0.005356 -11.253544   1.476998   2.064456  29.763410  -0.102258  -0.137484  -8.756252   0.560957  -1.028388  -8.169507   0.001778   0.038561
 -2.375804   0.908082   3.967276  -4.750640 -12.904787  -0.064767   5.226458   8.299150   0.029527  -1.021347   1.613700  -1.110406   0.082867  -2.932610   2.382771  -2.121820   4.889470  -2.941494  -5.027464  10.522757   4.681477  -0.056326  33.279987   0.117611  -2.299074  -1.637994   0.992679  -2.607505   4.472970   4.609129 -10.235786   4.536181  -1.467566  -0.028414 -11.022157  -0.066951  -3.425624  -2.070323   3.967045   4.245555   2.282458  -4.042847  23.501814  -0.007496  -0.109690 -24.254927  -3.399601  -0.102110  -0.685910  -0.002265   0.005484 -13.567436   1.466221   2.751672  32.297406  -0.108123  -0.118151 -10.323854   0.593682  -1.313532  -7.921714   0.000758   0.029134
 -2.376117   0.902516   3.965030  -4.810556 -13.879161   0.037221   5.657074   8.949192  -0.178054  -1.113794   1.946684  -1.185782   0.097700  -3.102574   2.484710  -2.380202   5.483487  -3.570178  -5.434443  11.670165   5.060592  -0.066918  37.035638   0.106156  -2.548158  -1.214486   0.947542  -2.842250   4.804961   5.141215 -11.244330   4.929980  -1.462869  -0.029713 -11.979073  -0.062521  -3.800456  -2.297466   4.588607   4.963365   2.303608  -4.927655  24.693991  -0.005364  -0.098837 -25.581551  -3.718277  -0.156635  -0.783552  -0.002482   0.005391 -15.870763   1.399389   3.520144  34.594658  -0.110899  -0.099023 -11.789032   0.633820  -1.579382  -7.696991  -0.000233   0.021922
 -2.376555   0.896172   3.962693  -4.869061 -14.766030   0.156704   6.120365   9.574648  -0.421472  -1.154711   2.279651  -1.292874   0.123519  -3.260882   2.580887  -2.627540   6.076630  -4.198945  -5.832065  12.772113   5.392682  -0.072653  40.559346   0.091998  -2.782637  -0.691992   0.837054  -3.062929   5.101285   5.649764 -12.187146   5.286709  -1.445779  -0.029963 -12.875771  -0.057104  -4.154665  -2.535051   5.201488   5.691218   2.315144  -5.827829  25.814940  -0.003395  -0.088720 -26.820514  -4.014433  -0.216814  -0.872740  -0.002603   0.005136 -18.136143   1.278875   4.339263  36.687468  -0.110808  -0.080943 -13.157890   0.678986  -1.827098  -7.492371  -0.001106   0.016432
 -2.377100   0.889078   3.960366  -4.923829 -15.563875   0.290532   6.597556  10.173223  -0.693589  -1.160487   2.608287  -1.425815   0.156021  -3.408047   2.670711  -2.862244   6.658118  -4.814083  -6.217970  13.819167   5.690408  -0.074000  43.856458   0.077016  -3.003223  -0.138654   0.685787  -3.270353   5.368743   6.129341 -13.068209   5.612357  -1.422622  -0.029387 -13.715204  -0.051352  -4.489563  -2.778853   5.795279   6.426662   2.315544  -6.725047  26.871521  -0.001658  -0.079293 -27.977509  -4.289307  -0.281024  -0.954042  -0.002637   0.004776 -20.344539   1.110651   5.181238  38.600180  -0.108244  -0.064436 -14.436537   0.727341  -2.057849  -7.306102  -0.001814   0.012278
 -2.377518   0.881583   3.958568  -4.810582 -16.422811   0.515852   6.821936  10.582221  -0.991249  -1.171113   2.987195  -1.517230   0.241436  -3.574844   2.718547  -3.119827   7.236875  -5.541137  -6.549273  14.974742   5.989124  -0.077676  47.020504   0.065667  -3.143567   0.503469   0.643042  -3.528173   5.744408   6.656097 -13.817460   5.959439  -1.503412  -0.027165 -14.318046  -0.045340  -4.699812  -3.002217   6.374197   7.183418   2.552148  -7.688395  26.883312  -0.001179  -0.063512 -28.631735  -3.973401  -0.295666  -0.807317  -0.001250   0.003639 -22.080322   0.751378   5.899713  39.286060  -0.094132  -0.052920 -14.997022   0.704088  -2.335196  -6.804428  -0.003788   0.005925
 -2.377848   0.873469   3.956866  -4.622667 -17.264646   0.755514   7.005540  10.939998  -1.262340  -1.230649   3.345412  -1.616545   0.316216  -3.737151   2.770076  -3.378149   7.796282  -6.298440  -6.879274  16.073218   6.224246  -0.081655  49.987624   0.056387  -3.273812   1.214577   0.545150  -3.775029   6.112135   7.165402 -14.517245   6.302905  -1.565912  -0.025004 -14.867739  -0.039989  -4.907958  -3.123288   6.933287   7.768736   2.798485  -8.621740  26.713329  -0.001180  -0.049808 -29.244164  -3.669879  -0.303832  -0.640992  -0.000091   0.002730 -23.639172   0.366910   6.594173  39.761941  -0.080370  -0.043451 -15.519670   0.682237  -2.593845  -6.286614  -0.005477   0.000652
